<svg version="1.1" xmlns="http://www.w3.org/2000/svg" xmlns:xlink="http://www.w3.org/1999/xlink" width="2000" height="2000"><defs/><g transform="scale(2,2)"><g id="background-a3d19501"><rect fill="white" stroke="none" x="0" y="0" width="1000" height="1000" class="dcg-svg-background"/></g><g id="background-images-a3d19501"/><g id="graphpaper-a3d19501"><g id="grid-a3d19501"><g><path fill="none" stroke="rgb(0,0,0)" class="dcg-svg-minor-gridline" paint-order="fill stroke markers" d=" M 29.5 0 L 29.5 1000" stroke-opacity="0.2" stroke-miterlimit="10" stroke-dasharray=""/><path fill="none" stroke="rgb(0,0,0)" class="dcg-svg-minor-gridline" paint-order="fill stroke markers" d=" M 49.5 0 L 49.5 1000" stroke-opacity="0.2" stroke-miterlimit="10" stroke-dasharray=""/><path fill="none" stroke="rgb(0,0,0)" class="dcg-svg-minor-gridline" paint-order="fill stroke markers" d=" M 69.5 0 L 69.5 1000" stroke-opacity="0.2" stroke-miterlimit="10" stroke-dasharray=""/><path fill="none" stroke="rgb(0,0,0)" class="dcg-svg-minor-gridline" paint-order="fill stroke markers" d=" M 89.5 0 L 89.5 1000" stroke-opacity="0.2" stroke-miterlimit="10" stroke-dasharray=""/><path fill="none" stroke="rgb(0,0,0)" class="dcg-svg-minor-gridline" paint-order="fill stroke markers" d=" M 109.5 0 L 109.5 1000" stroke-opacity="0.2" stroke-miterlimit="10" stroke-dasharray=""/><path fill="none" stroke="rgb(0,0,0)" class="dcg-svg-minor-gridline" paint-order="fill stroke markers" d=" M 129.5 0 L 129.5 1000" stroke-opacity="0.2" stroke-miterlimit="10" stroke-dasharray=""/><path fill="none" stroke="rgb(0,0,0)" class="dcg-svg-minor-gridline" paint-order="fill stroke markers" d=" M 149.5 0 L 149.5 1000" stroke-opacity="0.2" stroke-miterlimit="10" stroke-dasharray=""/><path fill="none" stroke="rgb(0,0,0)" class="dcg-svg-minor-gridline" paint-order="fill stroke markers" d=" M 169.5 0 L 169.5 1000" stroke-opacity="0.2" stroke-miterlimit="10" stroke-dasharray=""/><path fill="none" stroke="rgb(0,0,0)" class="dcg-svg-minor-gridline" paint-order="fill stroke markers" d=" M 189.5 0 L 189.5 1000" stroke-opacity="0.2" stroke-miterlimit="10" stroke-dasharray=""/><path fill="none" stroke="rgb(0,0,0)" class="dcg-svg-minor-gridline" paint-order="fill stroke markers" d=" M 209.5 0 L 209.5 1000" stroke-opacity="0.2" stroke-miterlimit="10" stroke-dasharray=""/><path fill="none" stroke="rgb(0,0,0)" class="dcg-svg-minor-gridline" paint-order="fill stroke markers" d=" M 229.5 0 L 229.5 1000" stroke-opacity="0.2" stroke-miterlimit="10" stroke-dasharray=""/><path fill="none" stroke="rgb(0,0,0)" class="dcg-svg-minor-gridline" paint-order="fill stroke markers" d=" M 249.5 0 L 249.5 1000" stroke-opacity="0.2" stroke-miterlimit="10" stroke-dasharray=""/><path fill="none" stroke="rgb(0,0,0)" class="dcg-svg-minor-gridline" paint-order="fill stroke markers" d=" M 269.5 0 L 269.5 1000" stroke-opacity="0.2" stroke-miterlimit="10" stroke-dasharray=""/><path fill="none" stroke="rgb(0,0,0)" class="dcg-svg-minor-gridline" paint-order="fill stroke markers" d=" M 289.5 0 L 289.5 1000" stroke-opacity="0.2" stroke-miterlimit="10" stroke-dasharray=""/><path fill="none" stroke="rgb(0,0,0)" class="dcg-svg-minor-gridline" paint-order="fill stroke markers" d=" M 309.5 0 L 309.5 1000" stroke-opacity="0.2" stroke-miterlimit="10" stroke-dasharray=""/><path fill="none" stroke="rgb(0,0,0)" class="dcg-svg-minor-gridline" paint-order="fill stroke markers" d=" M 329.5 0 L 329.5 1000" stroke-opacity="0.2" stroke-miterlimit="10" stroke-dasharray=""/><path fill="none" stroke="rgb(0,0,0)" class="dcg-svg-minor-gridline" paint-order="fill stroke markers" d=" M 349.5 0 L 349.5 1000" stroke-opacity="0.2" stroke-miterlimit="10" stroke-dasharray=""/><path fill="none" stroke="rgb(0,0,0)" class="dcg-svg-minor-gridline" paint-order="fill stroke markers" d=" M 369.5 0 L 369.5 1000" stroke-opacity="0.2" stroke-miterlimit="10" stroke-dasharray=""/><path fill="none" stroke="rgb(0,0,0)" class="dcg-svg-minor-gridline" paint-order="fill stroke markers" d=" M 389.5 0 L 389.5 1000" stroke-opacity="0.2" stroke-miterlimit="10" stroke-dasharray=""/><path fill="none" stroke="rgb(0,0,0)" class="dcg-svg-minor-gridline" paint-order="fill stroke markers" d=" M 409.5 0 L 409.5 1000" stroke-opacity="0.2" stroke-miterlimit="10" stroke-dasharray=""/><path fill="none" stroke="rgb(0,0,0)" class="dcg-svg-minor-gridline" paint-order="fill stroke markers" d=" M 429.5 0 L 429.5 1000" stroke-opacity="0.2" stroke-miterlimit="10" stroke-dasharray=""/><path fill="none" stroke="rgb(0,0,0)" class="dcg-svg-minor-gridline" paint-order="fill stroke markers" d=" M 449.5 0 L 449.5 1000" stroke-opacity="0.2" stroke-miterlimit="10" stroke-dasharray=""/><path fill="none" stroke="rgb(0,0,0)" class="dcg-svg-minor-gridline" paint-order="fill stroke markers" d=" M 469.5 0 L 469.5 1000" stroke-opacity="0.2" stroke-miterlimit="10" stroke-dasharray=""/><path fill="none" stroke="rgb(0,0,0)" class="dcg-svg-minor-gridline" paint-order="fill stroke markers" d=" M 489.5 0 L 489.5 1000" stroke-opacity="0.2" stroke-miterlimit="10" stroke-dasharray=""/><path fill="none" stroke="rgb(0,0,0)" class="dcg-svg-minor-gridline" paint-order="fill stroke markers" d=" M 509.5 0 L 509.5 1000" stroke-opacity="0.2" stroke-miterlimit="10" stroke-dasharray=""/><path fill="none" stroke="rgb(0,0,0)" class="dcg-svg-minor-gridline" paint-order="fill stroke markers" d=" M 529.5 0 L 529.5 1000" stroke-opacity="0.2" stroke-miterlimit="10" stroke-dasharray=""/><path fill="none" stroke="rgb(0,0,0)" class="dcg-svg-minor-gridline" paint-order="fill stroke markers" d=" M 549.5 0 L 549.5 1000" stroke-opacity="0.2" stroke-miterlimit="10" stroke-dasharray=""/><path fill="none" stroke="rgb(0,0,0)" class="dcg-svg-minor-gridline" paint-order="fill stroke markers" d=" M 569.5 0 L 569.5 1000" stroke-opacity="0.2" stroke-miterlimit="10" stroke-dasharray=""/><path fill="none" stroke="rgb(0,0,0)" class="dcg-svg-minor-gridline" paint-order="fill stroke markers" d=" M 589.5 0 L 589.5 1000" stroke-opacity="0.2" stroke-miterlimit="10" stroke-dasharray=""/><path fill="none" stroke="rgb(0,0,0)" class="dcg-svg-minor-gridline" paint-order="fill stroke markers" d=" M 609.5 0 L 609.5 1000" stroke-opacity="0.2" stroke-miterlimit="10" stroke-dasharray=""/><path fill="none" stroke="rgb(0,0,0)" class="dcg-svg-minor-gridline" paint-order="fill stroke markers" d=" M 629.5 0 L 629.5 1000" stroke-opacity="0.2" stroke-miterlimit="10" stroke-dasharray=""/><path fill="none" stroke="rgb(0,0,0)" class="dcg-svg-minor-gridline" paint-order="fill stroke markers" d=" M 649.5 0 L 649.5 1000" stroke-opacity="0.2" stroke-miterlimit="10" stroke-dasharray=""/><path fill="none" stroke="rgb(0,0,0)" class="dcg-svg-minor-gridline" paint-order="fill stroke markers" d=" M 669.5 0 L 669.5 1000" stroke-opacity="0.2" stroke-miterlimit="10" stroke-dasharray=""/><path fill="none" stroke="rgb(0,0,0)" class="dcg-svg-minor-gridline" paint-order="fill stroke markers" d=" M 689.5 0 L 689.5 1000" stroke-opacity="0.2" stroke-miterlimit="10" stroke-dasharray=""/><path fill="none" stroke="rgb(0,0,0)" class="dcg-svg-minor-gridline" paint-order="fill stroke markers" d=" M 709.5 0 L 709.5 1000" stroke-opacity="0.2" stroke-miterlimit="10" stroke-dasharray=""/><path fill="none" stroke="rgb(0,0,0)" class="dcg-svg-minor-gridline" paint-order="fill stroke markers" d=" M 729.5 0 L 729.5 1000" stroke-opacity="0.2" stroke-miterlimit="10" stroke-dasharray=""/><path fill="none" stroke="rgb(0,0,0)" class="dcg-svg-minor-gridline" paint-order="fill stroke markers" d=" M 749.5 0 L 749.5 1000" stroke-opacity="0.2" stroke-miterlimit="10" stroke-dasharray=""/><path fill="none" stroke="rgb(0,0,0)" class="dcg-svg-minor-gridline" paint-order="fill stroke markers" d=" M 769.5 0 L 769.5 1000" stroke-opacity="0.2" stroke-miterlimit="10" stroke-dasharray=""/><path fill="none" stroke="rgb(0,0,0)" class="dcg-svg-minor-gridline" paint-order="fill stroke markers" d=" M 789.5 0 L 789.5 1000" stroke-opacity="0.2" stroke-miterlimit="10" stroke-dasharray=""/><path fill="none" stroke="rgb(0,0,0)" class="dcg-svg-minor-gridline" paint-order="fill stroke markers" d=" M 809.5 0 L 809.5 1000" stroke-opacity="0.2" stroke-miterlimit="10" stroke-dasharray=""/><path fill="none" stroke="rgb(0,0,0)" class="dcg-svg-minor-gridline" paint-order="fill stroke markers" d=" M 829.5 0 L 829.5 1000" stroke-opacity="0.2" stroke-miterlimit="10" stroke-dasharray=""/><path fill="none" stroke="rgb(0,0,0)" class="dcg-svg-minor-gridline" paint-order="fill stroke markers" d=" M 849.5 0 L 849.5 1000" stroke-opacity="0.2" stroke-miterlimit="10" stroke-dasharray=""/><path fill="none" stroke="rgb(0,0,0)" class="dcg-svg-minor-gridline" paint-order="fill stroke markers" d=" M 869.5 0 L 869.5 1000" stroke-opacity="0.2" stroke-miterlimit="10" stroke-dasharray=""/><path fill="none" stroke="rgb(0,0,0)" class="dcg-svg-minor-gridline" paint-order="fill stroke markers" d=" M 889.5 0 L 889.5 1000" stroke-opacity="0.2" stroke-miterlimit="10" stroke-dasharray=""/><path fill="none" stroke="rgb(0,0,0)" class="dcg-svg-minor-gridline" paint-order="fill stroke markers" d=" M 909.5 0 L 909.5 1000" stroke-opacity="0.2" stroke-miterlimit="10" stroke-dasharray=""/><path fill="none" stroke="rgb(0,0,0)" class="dcg-svg-minor-gridline" paint-order="fill stroke markers" d=" M 929.5 0 L 929.5 1000" stroke-opacity="0.2" stroke-miterlimit="10" stroke-dasharray=""/><path fill="none" stroke="rgb(0,0,0)" class="dcg-svg-minor-gridline" paint-order="fill stroke markers" d=" M 949.5 0 L 949.5 1000" stroke-opacity="0.2" stroke-miterlimit="10" stroke-dasharray=""/><path fill="none" stroke="rgb(0,0,0)" class="dcg-svg-minor-gridline" paint-order="fill stroke markers" d=" M 969.5 0 L 969.5 1000" stroke-opacity="0.2" stroke-miterlimit="10" stroke-dasharray=""/><path fill="none" stroke="rgb(0,0,0)" class="dcg-svg-minor-gridline" paint-order="fill stroke markers" d=" M 989.5 0 L 989.5 1000" stroke-opacity="0.2" stroke-miterlimit="10" stroke-dasharray=""/><path fill="none" stroke="rgb(0,0,0)" class="dcg-svg-minor-gridline" paint-order="fill stroke markers" d=" M 0 989.5 L 1000 989.5" stroke-opacity="0.2" stroke-miterlimit="10" stroke-dasharray=""/><path fill="none" stroke="rgb(0,0,0)" class="dcg-svg-minor-gridline" paint-order="fill stroke markers" d=" M 0 969.5 L 1000 969.5" stroke-opacity="0.2" stroke-miterlimit="10" stroke-dasharray=""/><path fill="none" stroke="rgb(0,0,0)" class="dcg-svg-minor-gridline" paint-order="fill stroke markers" d=" M 0 949.5 L 1000 949.5" stroke-opacity="0.2" stroke-miterlimit="10" stroke-dasharray=""/><path fill="none" stroke="rgb(0,0,0)" class="dcg-svg-minor-gridline" paint-order="fill stroke markers" d=" M 0 929.5 L 1000 929.5" stroke-opacity="0.2" stroke-miterlimit="10" stroke-dasharray=""/><path fill="none" stroke="rgb(0,0,0)" class="dcg-svg-minor-gridline" paint-order="fill stroke markers" d=" M 0 909.5 L 1000 909.5" stroke-opacity="0.2" stroke-miterlimit="10" stroke-dasharray=""/><path fill="none" stroke="rgb(0,0,0)" class="dcg-svg-minor-gridline" paint-order="fill stroke markers" d=" M 0 889.5 L 1000 889.5" stroke-opacity="0.2" stroke-miterlimit="10" stroke-dasharray=""/><path fill="none" stroke="rgb(0,0,0)" class="dcg-svg-minor-gridline" paint-order="fill stroke markers" d=" M 0 869.5 L 1000 869.5" stroke-opacity="0.2" stroke-miterlimit="10" stroke-dasharray=""/><path fill="none" stroke="rgb(0,0,0)" class="dcg-svg-minor-gridline" paint-order="fill stroke markers" d=" M 0 849.5 L 1000 849.5" stroke-opacity="0.2" stroke-miterlimit="10" stroke-dasharray=""/><path fill="none" stroke="rgb(0,0,0)" class="dcg-svg-minor-gridline" paint-order="fill stroke markers" d=" M 0 829.5 L 1000 829.5" stroke-opacity="0.2" stroke-miterlimit="10" stroke-dasharray=""/><path fill="none" stroke="rgb(0,0,0)" class="dcg-svg-minor-gridline" paint-order="fill stroke markers" d=" M 0 809.5 L 1000 809.5" stroke-opacity="0.2" stroke-miterlimit="10" stroke-dasharray=""/><path fill="none" stroke="rgb(0,0,0)" class="dcg-svg-minor-gridline" paint-order="fill stroke markers" d=" M 0 789.5 L 1000 789.5" stroke-opacity="0.2" stroke-miterlimit="10" stroke-dasharray=""/><path fill="none" stroke="rgb(0,0,0)" class="dcg-svg-minor-gridline" paint-order="fill stroke markers" d=" M 0 769.5 L 1000 769.5" stroke-opacity="0.2" stroke-miterlimit="10" stroke-dasharray=""/><path fill="none" stroke="rgb(0,0,0)" class="dcg-svg-minor-gridline" paint-order="fill stroke markers" d=" M 0 749.5 L 1000 749.5" stroke-opacity="0.2" stroke-miterlimit="10" stroke-dasharray=""/><path fill="none" stroke="rgb(0,0,0)" class="dcg-svg-minor-gridline" paint-order="fill stroke markers" d=" M 0 729.5 L 1000 729.5" stroke-opacity="0.2" stroke-miterlimit="10" stroke-dasharray=""/><path fill="none" stroke="rgb(0,0,0)" class="dcg-svg-minor-gridline" paint-order="fill stroke markers" d=" M 0 709.5 L 1000 709.5" stroke-opacity="0.2" stroke-miterlimit="10" stroke-dasharray=""/><path fill="none" stroke="rgb(0,0,0)" class="dcg-svg-minor-gridline" paint-order="fill stroke markers" d=" M 0 689.5 L 1000 689.5" stroke-opacity="0.2" stroke-miterlimit="10" stroke-dasharray=""/><path fill="none" stroke="rgb(0,0,0)" class="dcg-svg-minor-gridline" paint-order="fill stroke markers" d=" M 0 669.5 L 1000 669.5" stroke-opacity="0.2" stroke-miterlimit="10" stroke-dasharray=""/><path fill="none" stroke="rgb(0,0,0)" class="dcg-svg-minor-gridline" paint-order="fill stroke markers" d=" M 0 629.5 L 1000 629.5" stroke-opacity="0.2" stroke-miterlimit="10" stroke-dasharray=""/><path fill="none" stroke="rgb(0,0,0)" class="dcg-svg-minor-gridline" paint-order="fill stroke markers" d=" M 0 609.5 L 1000 609.5" stroke-opacity="0.2" stroke-miterlimit="10" stroke-dasharray=""/><path fill="none" stroke="rgb(0,0,0)" class="dcg-svg-minor-gridline" paint-order="fill stroke markers" d=" M 0 589.5 L 1000 589.5" stroke-opacity="0.2" stroke-miterlimit="10" stroke-dasharray=""/><path fill="none" stroke="rgb(0,0,0)" class="dcg-svg-minor-gridline" paint-order="fill stroke markers" d=" M 0 569.5 L 1000 569.5" stroke-opacity="0.2" stroke-miterlimit="10" stroke-dasharray=""/><path fill="none" stroke="rgb(0,0,0)" class="dcg-svg-minor-gridline" paint-order="fill stroke markers" d=" M 0 549.5 L 1000 549.5" stroke-opacity="0.2" stroke-miterlimit="10" stroke-dasharray=""/><path fill="none" stroke="rgb(0,0,0)" class="dcg-svg-minor-gridline" paint-order="fill stroke markers" d=" M 0 529.5 L 1000 529.5" stroke-opacity="0.2" stroke-miterlimit="10" stroke-dasharray=""/><path fill="none" stroke="rgb(0,0,0)" class="dcg-svg-minor-gridline" paint-order="fill stroke markers" d=" M 0 509.5 L 1000 509.5" stroke-opacity="0.2" stroke-miterlimit="10" stroke-dasharray=""/><path fill="none" stroke="rgb(0,0,0)" class="dcg-svg-minor-gridline" paint-order="fill stroke markers" d=" M 0 489.5 L 1000 489.5" stroke-opacity="0.2" stroke-miterlimit="10" stroke-dasharray=""/><path fill="none" stroke="rgb(0,0,0)" class="dcg-svg-minor-gridline" paint-order="fill stroke markers" d=" M 0 469.5 L 1000 469.5" stroke-opacity="0.2" stroke-miterlimit="10" stroke-dasharray=""/><path fill="none" stroke="rgb(0,0,0)" class="dcg-svg-minor-gridline" paint-order="fill stroke markers" d=" M 0 449.5 L 1000 449.5" stroke-opacity="0.2" stroke-miterlimit="10" stroke-dasharray=""/><path fill="none" stroke="rgb(0,0,0)" class="dcg-svg-minor-gridline" paint-order="fill stroke markers" d=" M 0 429.5 L 1000 429.5" stroke-opacity="0.2" stroke-miterlimit="10" stroke-dasharray=""/><path fill="none" stroke="rgb(0,0,0)" class="dcg-svg-minor-gridline" paint-order="fill stroke markers" d=" M 0 409.5 L 1000 409.5" stroke-opacity="0.2" stroke-miterlimit="10" stroke-dasharray=""/><path fill="none" stroke="rgb(0,0,0)" class="dcg-svg-minor-gridline" paint-order="fill stroke markers" d=" M 0 389.5 L 1000 389.5" stroke-opacity="0.2" stroke-miterlimit="10" stroke-dasharray=""/><path fill="none" stroke="rgb(0,0,0)" class="dcg-svg-minor-gridline" paint-order="fill stroke markers" d=" M 0 369.5 L 1000 369.5" stroke-opacity="0.2" stroke-miterlimit="10" stroke-dasharray=""/><path fill="none" stroke="rgb(0,0,0)" class="dcg-svg-minor-gridline" paint-order="fill stroke markers" d=" M 0 349.5 L 1000 349.5" stroke-opacity="0.2" stroke-miterlimit="10" stroke-dasharray=""/><path fill="none" stroke="rgb(0,0,0)" class="dcg-svg-minor-gridline" paint-order="fill stroke markers" d=" M 0 329.5 L 1000 329.5" stroke-opacity="0.2" stroke-miterlimit="10" stroke-dasharray=""/><path fill="none" stroke="rgb(0,0,0)" class="dcg-svg-minor-gridline" paint-order="fill stroke markers" d=" M 0 309.5 L 1000 309.5" stroke-opacity="0.2" stroke-miterlimit="10" stroke-dasharray=""/><path fill="none" stroke="rgb(0,0,0)" class="dcg-svg-minor-gridline" paint-order="fill stroke markers" d=" M 0 289.5 L 1000 289.5" stroke-opacity="0.2" stroke-miterlimit="10" stroke-dasharray=""/><path fill="none" stroke="rgb(0,0,0)" class="dcg-svg-minor-gridline" paint-order="fill stroke markers" d=" M 0 269.5 L 1000 269.5" stroke-opacity="0.2" stroke-miterlimit="10" stroke-dasharray=""/><path fill="none" stroke="rgb(0,0,0)" class="dcg-svg-minor-gridline" paint-order="fill stroke markers" d=" M 0 249.5 L 1000 249.5" stroke-opacity="0.2" stroke-miterlimit="10" stroke-dasharray=""/><path fill="none" stroke="rgb(0,0,0)" class="dcg-svg-minor-gridline" paint-order="fill stroke markers" d=" M 0 229.5 L 1000 229.5" stroke-opacity="0.2" stroke-miterlimit="10" stroke-dasharray=""/><path fill="none" stroke="rgb(0,0,0)" class="dcg-svg-minor-gridline" paint-order="fill stroke markers" d=" M 0 209.5 L 1000 209.5" stroke-opacity="0.2" stroke-miterlimit="10" stroke-dasharray=""/><path fill="none" stroke="rgb(0,0,0)" class="dcg-svg-minor-gridline" paint-order="fill stroke markers" d=" M 0 189.5 L 1000 189.5" stroke-opacity="0.2" stroke-miterlimit="10" stroke-dasharray=""/><path fill="none" stroke="rgb(0,0,0)" class="dcg-svg-minor-gridline" paint-order="fill stroke markers" d=" M 0 169.5 L 1000 169.5" stroke-opacity="0.2" stroke-miterlimit="10" stroke-dasharray=""/><path fill="none" stroke="rgb(0,0,0)" class="dcg-svg-minor-gridline" paint-order="fill stroke markers" d=" M 0 149.5 L 1000 149.5" stroke-opacity="0.2" stroke-miterlimit="10" stroke-dasharray=""/><path fill="none" stroke="rgb(0,0,0)" class="dcg-svg-minor-gridline" paint-order="fill stroke markers" d=" M 0 129.5 L 1000 129.5" stroke-opacity="0.2" stroke-miterlimit="10" stroke-dasharray=""/><path fill="none" stroke="rgb(0,0,0)" class="dcg-svg-minor-gridline" paint-order="fill stroke markers" d=" M 0 109.5 L 1000 109.5" stroke-opacity="0.2" stroke-miterlimit="10" stroke-dasharray=""/><path fill="none" stroke="rgb(0,0,0)" class="dcg-svg-minor-gridline" paint-order="fill stroke markers" d=" M 0 89.5 L 1000 89.5" stroke-opacity="0.2" stroke-miterlimit="10" stroke-dasharray=""/><path fill="none" stroke="rgb(0,0,0)" class="dcg-svg-minor-gridline" paint-order="fill stroke markers" d=" M 0 69.5 L 1000 69.5" stroke-opacity="0.2" stroke-miterlimit="10" stroke-dasharray=""/><path fill="none" stroke="rgb(0,0,0)" class="dcg-svg-minor-gridline" paint-order="fill stroke markers" d=" M 0 49.5 L 1000 49.5" stroke-opacity="0.2" stroke-miterlimit="10" stroke-dasharray=""/><path fill="none" stroke="rgb(0,0,0)" class="dcg-svg-minor-gridline" paint-order="fill stroke markers" d=" M 0 29.5 L 1000 29.5" stroke-opacity="0.2" stroke-miterlimit="10" stroke-dasharray=""/><path fill="none" stroke="rgb(0,0,0)" class="dcg-svg-minor-gridline" paint-order="fill stroke markers" d=" M 0 9.5 L 1000 9.5" stroke-opacity="0.2" stroke-miterlimit="10" stroke-dasharray=""/><path fill="none" stroke="rgb(0,0,0)" class="dcg-svg-major-gridline" paint-order="fill stroke markers" d=" M 109.5 0 L 109.5 1000" stroke-opacity="0.2500000000000001" stroke-miterlimit="10" stroke-dasharray=""/><path fill="none" stroke="rgb(0,0,0)" class="dcg-svg-major-gridline" paint-order="fill stroke markers" d=" M 209.5 0 L 209.5 1000" stroke-opacity="0.2500000000000001" stroke-miterlimit="10" stroke-dasharray=""/><path fill="none" stroke="rgb(0,0,0)" class="dcg-svg-major-gridline" paint-order="fill stroke markers" d=" M 309.5 0 L 309.5 1000" stroke-opacity="0.2500000000000001" stroke-miterlimit="10" stroke-dasharray=""/><path fill="none" stroke="rgb(0,0,0)" class="dcg-svg-major-gridline" paint-order="fill stroke markers" d=" M 409.5 0 L 409.5 1000" stroke-opacity="0.2500000000000001" stroke-miterlimit="10" stroke-dasharray=""/><path fill="none" stroke="rgb(0,0,0)" class="dcg-svg-major-gridline" paint-order="fill stroke markers" d=" M 509.5 0 L 509.5 1000" stroke-opacity="0.2500000000000001" stroke-miterlimit="10" stroke-dasharray=""/><path fill="none" stroke="rgb(0,0,0)" class="dcg-svg-major-gridline" paint-order="fill stroke markers" d=" M 609.5 0 L 609.5 1000" stroke-opacity="0.2500000000000001" stroke-miterlimit="10" stroke-dasharray=""/><path fill="none" stroke="rgb(0,0,0)" class="dcg-svg-major-gridline" paint-order="fill stroke markers" d=" M 709.5 0 L 709.5 1000" stroke-opacity="0.2500000000000001" stroke-miterlimit="10" stroke-dasharray=""/><path fill="none" stroke="rgb(0,0,0)" class="dcg-svg-major-gridline" paint-order="fill stroke markers" d=" M 809.5 0 L 809.5 1000" stroke-opacity="0.2500000000000001" stroke-miterlimit="10" stroke-dasharray=""/><path fill="none" stroke="rgb(0,0,0)" class="dcg-svg-major-gridline" paint-order="fill stroke markers" d=" M 909.5 0 L 909.5 1000" stroke-opacity="0.2500000000000001" stroke-miterlimit="10" stroke-dasharray=""/><path fill="none" stroke="rgb(0,0,0)" class="dcg-svg-major-gridline" paint-order="fill stroke markers" d=" M 0 950 L 1000 950" stroke-opacity="0.2500000000000001" stroke-miterlimit="10" stroke-dasharray=""/><path fill="none" stroke="rgb(0,0,0)" class="dcg-svg-major-gridline" paint-order="fill stroke markers" d=" M 0 850 L 1000 850" stroke-opacity="0.2500000000000001" stroke-miterlimit="10" stroke-dasharray=""/><path fill="none" stroke="rgb(0,0,0)" class="dcg-svg-major-gridline" paint-order="fill stroke markers" d=" M 0 750 L 1000 750" stroke-opacity="0.2500000000000001" stroke-miterlimit="10" stroke-dasharray=""/><path fill="none" stroke="rgb(0,0,0)" class="dcg-svg-major-gridline" paint-order="fill stroke markers" d=" M 0 550 L 1000 550" stroke-opacity="0.2500000000000001" stroke-miterlimit="10" stroke-dasharray=""/><path fill="none" stroke="rgb(0,0,0)" class="dcg-svg-major-gridline" paint-order="fill stroke markers" d=" M 0 450 L 1000 450" stroke-opacity="0.2500000000000001" stroke-miterlimit="10" stroke-dasharray=""/><path fill="none" stroke="rgb(0,0,0)" class="dcg-svg-major-gridline" paint-order="fill stroke markers" d=" M 0 350 L 1000 350" stroke-opacity="0.2500000000000001" stroke-miterlimit="10" stroke-dasharray=""/><path fill="none" stroke="rgb(0,0,0)" class="dcg-svg-major-gridline" paint-order="fill stroke markers" d=" M 0 250 L 1000 250" stroke-opacity="0.2500000000000001" stroke-miterlimit="10" stroke-dasharray=""/><path fill="none" stroke="rgb(0,0,0)" class="dcg-svg-major-gridline" paint-order="fill stroke markers" d=" M 0 150 L 1000 150" stroke-opacity="0.2500000000000001" stroke-miterlimit="10" stroke-dasharray=""/><path fill="none" stroke="rgb(0,0,0)" class="dcg-svg-major-gridline" paint-order="fill stroke markers" d=" M 0 50 L 1000 50" stroke-opacity="0.2500000000000001" stroke-miterlimit="10" stroke-dasharray=""/></g></g><g id="axis-a3d19501"><g id="yaxis-a3d19501"><title>Y axis</title><g><path fill="none" stroke="rgb(0,0,0)" class="dcg-svg-axis-line" paint-order="fill stroke markers" d=" M 9 0 L 9 1000" stroke-opacity="0.9" stroke-miterlimit="10" stroke-width="1.5" stroke-dasharray=""/></g></g><g id="xaxis-a3d19501"><title>X axis</title><g><path fill="none" stroke="rgb(0,0,0)" class="dcg-svg-axis-line" paint-order="fill stroke markers" d=" M 0 650 L 1000 650" stroke-opacity="0.9" stroke-miterlimit="10" stroke-width="1.5" stroke-dasharray=""/></g></g><g><g class="dcg-svg-axis-value"><text fill="none" stroke="#ffffff" font-family="Arial" font-size="14px" font-style="normal" font-weight="normal" text-decoration="normal" x="0.547954720519094" y="665.3471705069136" text-anchor="middle" stroke-miterlimit="2" stroke-width="3" stroke-dasharray="">0</text><text fill="#000000" stroke="none" font-family="Arial" font-size="14px" font-style="normal" font-weight="normal" text-decoration="normal" x="0.547954720519094" y="665.3471705069136" text-anchor="middle">0</text></g><g class="dcg-svg-axis-value"><text fill="none" stroke="#ffffff" font-family="Arial" font-size="14px" font-style="normal" font-weight="normal" text-decoration="normal" x="109.44102112676825" y="665.3471705069136" text-anchor="middle" stroke-miterlimit="2" stroke-width="3" stroke-dasharray="">500</text><text fill="#000000" stroke="none" font-family="Arial" font-size="14px" font-style="normal" font-weight="normal" text-decoration="normal" x="109.44102112676825" y="665.3471705069136" text-anchor="middle">500</text></g><g class="dcg-svg-axis-value"><text fill="none" stroke="#ffffff" font-family="Arial" font-size="14px" font-style="normal" font-weight="normal" text-decoration="normal" x="209.44102112676742" y="665.3471705069136" text-anchor="middle" stroke-miterlimit="2" stroke-width="3" stroke-dasharray="">1000</text><text fill="#000000" stroke="none" font-family="Arial" font-size="14px" font-style="normal" font-weight="normal" text-decoration="normal" x="209.44102112676742" y="665.3471705069136" text-anchor="middle">1000</text></g><g class="dcg-svg-axis-value"><text fill="none" stroke="#ffffff" font-family="Arial" font-size="14px" font-style="normal" font-weight="normal" text-decoration="normal" x="309.4410211267666" y="665.3471705069136" text-anchor="middle" stroke-miterlimit="2" stroke-width="3" stroke-dasharray="">1500</text><text fill="#000000" stroke="none" font-family="Arial" font-size="14px" font-style="normal" font-weight="normal" text-decoration="normal" x="309.4410211267666" y="665.3471705069136" text-anchor="middle">1500</text></g><g class="dcg-svg-axis-value"><text fill="none" stroke="#ffffff" font-family="Arial" font-size="14px" font-style="normal" font-weight="normal" text-decoration="normal" x="409.44102112676575" y="665.3471705069136" text-anchor="middle" stroke-miterlimit="2" stroke-width="3" stroke-dasharray="">2000</text><text fill="#000000" stroke="none" font-family="Arial" font-size="14px" font-style="normal" font-weight="normal" text-decoration="normal" x="409.44102112676575" y="665.3471705069136" text-anchor="middle">2000</text></g><g class="dcg-svg-axis-value"><text fill="none" stroke="#ffffff" font-family="Arial" font-size="14px" font-style="normal" font-weight="normal" text-decoration="normal" x="509.4410211267649" y="665.3471705069136" text-anchor="middle" stroke-miterlimit="2" stroke-width="3" stroke-dasharray="">2500</text><text fill="#000000" stroke="none" font-family="Arial" font-size="14px" font-style="normal" font-weight="normal" text-decoration="normal" x="509.4410211267649" y="665.3471705069136" text-anchor="middle">2500</text></g><g class="dcg-svg-axis-value"><text fill="none" stroke="#ffffff" font-family="Arial" font-size="14px" font-style="normal" font-weight="normal" text-decoration="normal" x="609.4410211267641" y="665.3471705069136" text-anchor="middle" stroke-miterlimit="2" stroke-width="3" stroke-dasharray="">3000</text><text fill="#000000" stroke="none" font-family="Arial" font-size="14px" font-style="normal" font-weight="normal" text-decoration="normal" x="609.4410211267641" y="665.3471705069136" text-anchor="middle">3000</text></g><g class="dcg-svg-axis-value"><text fill="none" stroke="#ffffff" font-family="Arial" font-size="14px" font-style="normal" font-weight="normal" text-decoration="normal" x="709.4410211267632" y="665.3471705069136" text-anchor="middle" stroke-miterlimit="2" stroke-width="3" stroke-dasharray="">3500</text><text fill="#000000" stroke="none" font-family="Arial" font-size="14px" font-style="normal" font-weight="normal" text-decoration="normal" x="709.4410211267632" y="665.3471705069136" text-anchor="middle">3500</text></g><g class="dcg-svg-axis-value"><text fill="none" stroke="#ffffff" font-family="Arial" font-size="14px" font-style="normal" font-weight="normal" text-decoration="normal" x="809.4410211267624" y="665.3471705069136" text-anchor="middle" stroke-miterlimit="2" stroke-width="3" stroke-dasharray="">4000</text><text fill="#000000" stroke="none" font-family="Arial" font-size="14px" font-style="normal" font-weight="normal" text-decoration="normal" x="809.4410211267624" y="665.3471705069136" text-anchor="middle">4000</text></g><g class="dcg-svg-axis-value"><text fill="none" stroke="#ffffff" font-family="Arial" font-size="14px" font-style="normal" font-weight="normal" text-decoration="normal" x="909.4410211267615" y="665.3471705069136" text-anchor="middle" stroke-miterlimit="2" stroke-width="3" stroke-dasharray="">4500</text><text fill="#000000" stroke="none" font-family="Arial" font-size="14px" font-style="normal" font-weight="normal" text-decoration="normal" x="909.4410211267615" y="665.3471705069136" text-anchor="middle">4500</text></g><g class="dcg-svg-axis-value"><text fill="none" stroke="#ffffff" font-family="Arial" font-size="14px" font-style="normal" font-weight="normal" text-decoration="normal" x="15.06201171875" y="953.3471705069135" text-anchor="middle" stroke-miterlimit="2" stroke-width="3" stroke-dasharray="">-1.5</text><text fill="rgb(150,150,150)" stroke="none" font-family="Arial" font-size="14px" font-style="normal" font-weight="normal" text-decoration="normal" x="15.06201171875" y="953.3471705069135" text-anchor="middle" fill-opacity="1">-1.5</text></g><g class="dcg-svg-axis-value"><text fill="none" stroke="#ffffff" font-family="Arial" font-size="14px" font-style="normal" font-weight="normal" text-decoration="normal" x="9.22412109375" y="853.3471705069136" text-anchor="middle" stroke-miterlimit="2" stroke-width="3" stroke-dasharray="">-1</text><text fill="rgb(150,150,150)" stroke="none" font-family="Arial" font-size="14px" font-style="normal" font-weight="normal" text-decoration="normal" x="9.22412109375" y="853.3471705069136" text-anchor="middle" fill-opacity="1">-1</text></g><g class="dcg-svg-axis-value"><text fill="none" stroke="#ffffff" font-family="Arial" font-size="14px" font-style="normal" font-weight="normal" text-decoration="normal" x="15.06201171875" y="753.3471705069136" text-anchor="middle" stroke-miterlimit="2" stroke-width="3" stroke-dasharray="">-0.5</text><text fill="rgb(150,150,150)" stroke="none" font-family="Arial" font-size="14px" font-style="normal" font-weight="normal" text-decoration="normal" x="15.06201171875" y="753.3471705069136" text-anchor="middle" fill-opacity="1">-0.5</text></g><g class="dcg-svg-axis-value"><text fill="none" stroke="#ffffff" font-family="Arial" font-size="14px" font-style="normal" font-weight="normal" text-decoration="normal" x="12.73095703125" y="553.3471705069136" text-anchor="middle" stroke-miterlimit="2" stroke-width="3" stroke-dasharray="">0.5</text><text fill="rgb(150,150,150)" stroke="none" font-family="Arial" font-size="14px" font-style="normal" font-weight="normal" text-decoration="normal" x="12.73095703125" y="553.3471705069136" text-anchor="middle" fill-opacity="1">0.5</text></g><g class="dcg-svg-axis-value"><text fill="none" stroke="#ffffff" font-family="Arial" font-size="14px" font-style="normal" font-weight="normal" text-decoration="normal" x="6.89306640625" y="453.3471705069136" text-anchor="middle" stroke-miterlimit="2" stroke-width="3" stroke-dasharray="">1</text><text fill="rgb(150,150,150)" stroke="none" font-family="Arial" font-size="14px" font-style="normal" font-weight="normal" text-decoration="normal" x="6.89306640625" y="453.3471705069136" text-anchor="middle" fill-opacity="1">1</text></g><g class="dcg-svg-axis-value"><text fill="none" stroke="#ffffff" font-family="Arial" font-size="14px" font-style="normal" font-weight="normal" text-decoration="normal" x="12.73095703125" y="353.34717050691364" text-anchor="middle" stroke-miterlimit="2" stroke-width="3" stroke-dasharray="">1.5</text><text fill="rgb(150,150,150)" stroke="none" font-family="Arial" font-size="14px" font-style="normal" font-weight="normal" text-decoration="normal" x="12.73095703125" y="353.34717050691364" text-anchor="middle" fill-opacity="1">1.5</text></g><g class="dcg-svg-axis-value"><text fill="none" stroke="#ffffff" font-family="Arial" font-size="14px" font-style="normal" font-weight="normal" text-decoration="normal" x="6.89306640625" y="253.34717050691364" text-anchor="middle" stroke-miterlimit="2" stroke-width="3" stroke-dasharray="">2</text><text fill="rgb(150,150,150)" stroke="none" font-family="Arial" font-size="14px" font-style="normal" font-weight="normal" text-decoration="normal" x="6.89306640625" y="253.34717050691364" text-anchor="middle" fill-opacity="1">2</text></g><g class="dcg-svg-axis-value"><text fill="none" stroke="#ffffff" font-family="Arial" font-size="14px" font-style="normal" font-weight="normal" text-decoration="normal" x="12.73095703125" y="153.34717050691364" text-anchor="middle" stroke-miterlimit="2" stroke-width="3" stroke-dasharray="">2.5</text><text fill="rgb(150,150,150)" stroke="none" font-family="Arial" font-size="14px" font-style="normal" font-weight="normal" text-decoration="normal" x="12.73095703125" y="153.34717050691364" text-anchor="middle" fill-opacity="1">2.5</text></g><g class="dcg-svg-axis-value"><text fill="none" stroke="#ffffff" font-family="Arial" font-size="14px" font-style="normal" font-weight="normal" text-decoration="normal" x="6.89306640625" y="53.347170506913706" text-anchor="middle" stroke-miterlimit="2" stroke-width="3" stroke-dasharray="">3</text><text fill="rgb(150,150,150)" stroke="none" font-family="Arial" font-size="14px" font-style="normal" font-weight="normal" text-decoration="normal" x="6.89306640625" y="53.347170506913706" text-anchor="middle" fill-opacity="1">3</text></g></g></g></g><g id="expressions-a3d19501"><g id="sketch-a3d19501"><title>Expression 1</title><path fill="#c74440" stroke="none" paint-order="stroke fill markers" d="" fill-opacity="0.4"/><g><path fill="none" stroke="#c74440" class="dcg-svg-curve" paint-order="fill stroke markers" d=" M 9.441021126769094 309.5391705069136 L 9.441021126769094 309.5391705069136 L 9.521484375 191.02059672485836 L 9.765625 118.3111449626449 L 9.934015189911344 109.59998811427852 L 10.253906249999998 129.20337186072243 L 10.498046875 160.53632693310374 L 10.7421875 198.5340021135064 L 11.23046875 280.37259440334026 L 11.474609374999998 319.99431910115675 L 11.71875 357.0364453285955 L 11.962890625 390.73361687213173 L 12.207031249999998 420.5990027911271 L 12.451171874999998 446.35281791220086 L 12.6953125 467.87144236433335 L 12.939453125 485.14991727179256 L 13.18359375 498.27354486873793 L 13.427734375 507.3959299905481 L 13.671874999999998 512.7217276236709 L 13.922082204479999 514.4939358294628 L 14.16015625 512.977818004118 L 14.404296874999998 508.46214956679336 L 14.648437500000002 501.24187822964217 L 14.892578125 491.6173457273749 L 15.136718749999998 479.8885338458947 L 15.380859375000002 466.3512332618484 L 15.625 451.29396570196184 L 15.869140624999996 434.9955341613945 L 16.11328125 417.72309934794043 L 16.357421875 399.73069869986034 L 16.845703125 362.53020201187553 L 17.333984374999996 325.12928208826827 L 17.578125 306.8271033141557 L 17.822265624999996 289.0110951436699 L 18.066406249999996 271.82703749901543 L 18.310546875 255.4052756686757 L 18.554687499999996 239.8611075040592 L 18.798828124999996 225.29524641886496 L 19.04296875 211.79434572524804 L 19.287109374999996 199.43157174327666 L 19.53125 188.26721476548778 L 19.775390625 178.34932838704447 L 20.019531249999996 169.7143889570741 L 20.263671875 162.3879679953235 L 20.507812499999996 156.38541137269442 L 20.751953124999996 151.71251989312782 L 20.99609375 148.3662266533098 L 21.240234374999996 146.33526720882696 L 21.50247676519182 145.59734849378196 L 21.728515625 146.13724821561073 L 21.972656249999996 147.91253847273993 L 22.216796874999996 150.88910459539534 L 22.4609375 155.02428450007642 L 22.705078124999996 160.27093101537093 L 22.94921875 166.57796149018554 L 23.193359374999996 173.89088450771033 L 23.437500000000004 182.15230308971434 L 23.681640625 191.30239396981005 L 23.925781249999996 201.2793626857249 L 24.169921875 212.01987439172 L 24.4140625 223.4594604252062 L 24.658203124999996 235.53290077814665 L 24.90234375 248.17458272569138 L 25.146484375 261.31883595311126 L 25.390625000000004 274.90024459882466 L 25.87890625 303.11585156208 L 26.3671875 332.3136178600836 L 27.83203125 421.0636657876861 L 28.3203125 449.6060185568406 L 28.564453125 463.46888852090274 L 28.808593749999996 477.00456271751546 L 29.052734374999993 490.17501636867485 L 29.296875000000004 502.94483892254743 L 29.541015625 515.2812531826403 L 29.78515625 527.1541236588708 L 30.029296874999996 538.5359548192957 L 30.273437499999996 549.4018799055506 L 30.517578124999993 559.7296409583472 L 30.761718750000004 569.4995606818362 L 31.005859375 578.6945067574188 L 31.25 587.2998491988157 L 31.494140624999996 595.303411320956 L 31.738281249999993 602.6954148756992 L 31.982421875000004 609.4684198875891 L 32.2265625 615.6172597028806 L 32.470703125 621.1389717450488 L 32.71484375 626.0327244499504 L 32.95898437499999 630.2997408338338 L 33.203125 633.9432191275426 L 33.447265625 636.9682508905605 L 33.69140625 639.3817369990923 L 33.935546875 641.1923018831518 L 34.1796875 642.4102063687232 L 34.42382812499999 643.0472594624619 L 34.575938386847696 643.1562925826402 L 34.912109375 642.6332542464979 L 35.15625 641.6127523715859 L 35.400390625 640.0723330019086 L 35.64453125 638.0302071652493 L 35.888671875 635.5055992221706 L 36.1328125 632.5186592163516 L 36.376953125 629.0903762450222 L 36.62109375 625.242493037956 L 36.865234375 620.9974219191963 L 37.109375 616.3781623118938 L 37.353515625 611.4082199333102 L 37.841796875 600.5123692644287 L 38.330078125 588.5050897934076 L 38.818359375 575.5848589685621 L 39.306640625 561.951191476101 L 40.0390625 540.5964249750671 L 41.74804687499999 489.8898621745959 L 42.236328125 475.9832557557994 L 42.724609375 462.63560524326 L 43.21289062499999 449.99397961450643 L 43.701171875 438.1937573984136 L 44.189453125 427.3580114540696 L 44.67773437499999 417.59703777144 L 45.166015625 409.0080213456978 L 45.654296875 401.67483165267765 L 45.89843749999999 398.50171733677064 L 46.14257812499999 395.6679398426021 L 46.38671875 393.18021964092884 L 46.630859375 391.044449463437 L 46.875 389.2657008793815 L 47.11914062499999 387.8482323148223 L 47.36328124999999 386.7954984473928 L 47.607421875 386.1101609096454 L 47.93786161832114 385.7709471169044 L 48.33984375 386.2735059351661 L 48.58398437499999 387.0689514456211 L 48.82812499999999 388.233663614909 L 49.072265625 389.7658355005244 L 49.31640625 391.6629731303227 L 49.560546875 393.92191431453284 L 49.80468749999999 396.53884818678216 L 50.04882812499999 399.50933541398786 L 50.29296875 402.82832901608674 L 50.537109375 406.49019573775774 L 50.78125 410.488737915514 L 51.26953124999999 419.4683701732663 L 51.7578125 429.7072132192509 L 52.24609374999999 441.13768717705284 L 52.734375 453.68540034850423 L 53.22265624999999 467.2699135321898 L 53.71093749999999 481.80550745772996 L 54.19921875 497.2019480051393 L 54.68749999999999 513.3652442698341 L 55.17578124999999 530.1983949259773 L 55.6640625 547.6021187312085 L 56.39648437499999 574.5566598625944 L 57.12890625 602.2244820952571 L 59.5703125 695.2459499261151 L 60.30273437499999 722.1387900540541 L 60.791015624999986 739.5262659770792 L 61.279296874999986 756.3850201878473 L 61.76757812499999 772.6378007253901 L 62.255859374999986 788.2120413010357 L 62.74414062499999 803.0401129431078 L 63.23242187499999 817.0595381095612 L 63.720703124999986 830.2131679564008 L 64.208984375 842.4493236111717 L 64.69726562499999 853.7219024468716 L 65.18554687499999 863.9904504827069 L 65.673828125 873.2202021545564 L 66.16210937499999 881.3820888003454 L 66.650390625 888.4527172942187 L 67.13867187499999 894.4143203389707 L 67.62695312499999 899.2546799892036 L 68.11523437499999 902.9670260287016 L 68.60351562499999 905.5499108651331 L 69.09179687499999 907.0070626340016 L 69.48544896985558 907.3679850497153 L 69.82421874999999 907.1024770451797 L 70.3125 905.794016437269 L 70.80078125 903.4110583502851 L 71.28906249999999 899.9783057747264 L 71.77734374999999 895.5245165777643 L 72.26562499999999 890.0822566353146 L 72.75390625 883.6876438517329 L 73.2421875 876.3800846534194 L 73.73046875 868.2020044987955 L 74.21874999999999 859.1985738986507 L 74.70703124999999 849.4174313882596 L 75.19531249999999 838.9084048364714 L 75.68359375 827.7232324176053 L 76.171875 815.9152845099813 L 76.66015624999999 803.5392877206216 L 77.14843749999999 790.6510521696259 L 77.880859375 770.4822769063619 L 78.61328125 749.4816688448643 L 79.34570312499999 727.8432620590057 L 80.322265625 698.3332255240446 L 83.00781249999999 616.7115086033482 L 83.74023437499999 595.1495606776559 L 84.47265625 574.1904327718762 L 85.20507812499999 553.9778543888707 L 85.93749999999999 534.6439939790182 L 86.42578124999999 522.3026594125517 L 86.9140625 510.4377847647949 L 87.40234374999999 499.0791360140755 L 87.89062499999999 488.25382699819 L 88.37890624999999 477.9862817117961 L 88.86718749999999 468.29820791921316 L 89.35546874999999 459.2085817947519 L 89.84375 450.73364327299817 L 90.33203124999999 442.8869017642945 L 90.82031249999999 435.67915186598464 L 91.30859374999999 429.11849867777937 L 91.79687499999999 423.21039230979727 L 92.28515624999999 417.9576711544055 L 92.77343749999999 413.3606134778787 L 93.26171874999999 409.4169968750183 L 93.74999999999999 406.12216511920167 L 94.23828124999999 403.469101931766 L 94.72656249999999 401.448511188114 L 95.21484375 400.04890307336757 L 95.70312499999999 399.2566856977372 L 96.115271366396 399.0492555104313 L 96.6796875 399.4301292156197 L 97.16796874999999 400.3589871230521 L 97.65624999999999 401.82184341681966 L 98.14453125 403.7961268977132 L 98.63281249999999 406.2578013083611 L 99.12109374999999 409.1814815851111 L 99.85351562499999 414.37473327000976 L 100.58593749999999 420.4529586694289 L 101.31835937499999 427.31704746597154 L 102.05078125 434.8640840726191 L 102.783203125 442.98825470719555 L 103.75976562500001 454.531718638147 L 104.98046875 469.740642532745 L 108.154296875 509.91559908604023 L 109.13085937499999 521.5088336720002 L 110.10742187499999 532.3444887419829 L 110.83984375 539.8512872927861 L 111.572265625 546.7383100940156 L 112.30468749999999 552.9326096181508 L 113.037109375 558.367732818137 L 113.76953125 562.9840326127098 L 114.50195312499997 566.7289247676758 L 115.23437499999999 569.5570905740171 L 115.96679687499999 571.4306260502694 L 116.455078125 572.1339800505161 L 116.97986729724275 572.3935117668591 L 117.67578124999999 571.9331846144282 L 118.16406249999999 571.0573072332597 L 118.65234374999999 569.7230902867866 L 119.140625 567.9300619174674 L 119.62890625 565.6791959698687 L 120.11718749999999 562.9728906597954 L 120.60546874999999 559.8149437071501 L 121.09374999999999 556.2105240825778 L 121.58203125 552.166140522799 L 122.314453125 545.2920735415009 L 123.04687499999999 537.4776441994178 L 123.779296875 528.7606354921322 L 124.51171874999997 519.1845971018465 L 125.24414062499997 508.7984816283911 L 125.97656249999999 497.6562583757894 L 126.70898437499999 485.8165076702139 L 127.44140625 473.34199867791926 L 128.173828125 460.299253667981 L 129.15039062499997 442.14611602613695 L 130.12695312499997 423.28044761764465 L 131.34765625 398.97152022327987 L 133.544921875 354.2832523060123 L 135.00976562499997 324.7131014733942 L 136.23046874999997 300.745533423691 L 137.20703125 282.2698555311623 L 137.939453125 268.9362398604628 L 138.67187499999997 256.130503129618 L 139.404296875 243.92122421647525 L 140.13671874999997 232.373929328224 L 140.86914062499997 221.55080199055283 L 141.6015625 211.51041606559875 L 142.33398437499997 202.30749247597305 L 143.06640625 193.99268017006307 L 143.798828125 186.61236172492897 L 144.287109375 182.23221418144192 L 144.775390625 178.2974374370283 L 145.26367187499997 174.8184129058517 L 145.75195312499997 171.8045864272292 L 146.24023437499997 169.2644563660126 L 146.728515625 167.205563880946 L 147.216796875 165.63448534182487 L 147.70507812499997 164.55682687211652 L 148.19335937499997 163.97722098970814 L 148.68164062499997 163.89932531461386 L 149.169921875 164.32582330879995 L 149.658203125 165.2584270097907 L 150.146484375 166.69788171638493 L 150.63476562499997 168.64397258166218 L 151.12304687499997 171.0955330654682 L 151.611328125 174.0504551957746 L 152.099609375 177.50570158567007 L 152.587890625 181.45731915029455 L 153.076171875 185.90045446574982 L 153.56445312499997 190.82937070992398 L 154.052734375 196.23746612324499 L 154.54101562499997 202.11729392562654 L 155.029296875 208.4605836243054 L 155.517578125 215.2582636458494 L 156.00585937499997 222.50048522440318 L 156.73828124999997 234.17394434759308 L 157.470703125 246.78478809251828 L 158.203125 260.2907394405165 L 158.93554687499997 274.64627540957747 L 159.66796875 289.80285584196474 L 160.40039062499997 305.709160436184 L 161.1328125 322.31133279518644 L 161.86523437499997 339.5532302702352 L 162.59765624999997 357.37667839247194 L 163.57421875 381.94207253660124 L 164.55078124999997 407.28841862835816 L 165.52734375 433.26586595591175 L 166.74804687499997 466.39277459327445 L 168.70117187499997 520.2003941358548 L 170.654296875 573.9234699894007 L 171.875 606.9224524358184 L 172.85156249999997 632.7698923256945 L 173.828125 657.9759509010244 L 174.80468749999997 682.4072601464254 L 175.537109375 700.1456707990674 L 176.26953125 717.3257345157708 L 177.00195312499997 733.8988579335222 L 177.73437499999997 749.8189741878482 L 178.46679687499997 765.0426676789193 L 179.19921875 779.5292866011015 L 179.931640625 793.2410431056621 L 180.66406249999997 806.1431010174656 L 181.396484375 818.2036510762498 L 182.12890625 829.3939737213511 L 182.86132812499997 839.6884894853785 L 183.59374999999997 849.0647971072206 L 184.32617187499997 857.5036995178082 L 185.05859375 864.9892178931221 L 185.79101562499997 871.5085940079722 L 186.279296875 875.3132530054769 L 186.76757812499997 878.682167256797 L 187.255859375 881.6139239760244 L 187.74414062499997 884.1077323291418 L 188.232421875 886.1634177520579 L 188.72070312499997 887.7814153884649 L 189.20898437499997 888.9627626719791 L 189.94140625 889.9197932595167 L 190.673828125 889.9061322765734 L 191.40624999999997 888.9326281713926 L 192.138671875 887.0129296566051 L 192.87109374999997 884.1633934376046 L 193.603515625 880.4029845766344 L 194.33593749999997 875.7531700149606 L 195.06835937499997 870.2378057856624 L 195.80078125 863.8830184575227 L 196.53320312499997 856.7170813562605 L 197.265625 848.7702861130372 L 197.998046875 840.0748100917424 L 198.73046874999997 830.6645802462151 L 199.46289062499997 820.5751339562121 L 200.19531249999997 809.843477386819 L 200.92773437499997 798.5079419100143 L 201.66015625 786.6080391195129 L 202.39257812499997 774.1843149607539 L 203.36914062499997 756.876240259597 L 204.345703125 738.8108724815258 L 205.322265625 720.0901435823639 L 206.54296875 695.9246950189582 L 207.76367187499997 671.0986133662677 L 209.47265625 635.6161530829819 L 213.62304687500003 549.0138974912388 L 215.087890625 519.3314176139751 L 216.30859375 495.30243207736726 L 217.28515625 476.6547275226818 L 218.26171875000003 458.59979161453725 L 219.23828125000003 441.20738297772743 L 220.21484375 424.54209216837785 L 221.19140625 408.66313581758504 L 222.16796875 393.62418603518984 L 222.900390625 382.9253148676978 L 223.63281249999997 372.74417786103675 L 224.36523437499997 363.09704472665294 L 225.09765625000003 353.99832790936296 L 225.830078125 345.4605777944545 L 226.5625 337.4944837140831 L 227.294921875 330.10888061783294 L 228.02734375 323.3107612580285 L 228.75976562500003 317.10529372697613 L 229.49218750000003 311.49584417076164 L 230.22460937500003 306.4840044925512 L 230.95703125 302.0696248475665 L 231.689453125 298.2508507220133 L 232.421875 295.02416437925365 L 233.154296875 292.38443044842995 L 233.88671875 290.32494542355835 L 234.61914062499997 288.83749083482144 L 235.35156249999997 287.912389848383 L 236.08398437500003 287.53856704653936 L 236.81640625 287.7036111363449 L 237.548828125 288.3938403320675 L 238.28125 289.5943701548649 L 239.25781250000003 291.96103928479215 L 240.23437499999997 295.1654455726973 L 241.21093750000003 299.1636807711062 L 242.1875 303.90911298139076 L 243.1640625 309.35271001502053 L 244.140625 315.4433663111506 L 245.11718749999997 322.1282315842094 L 246.33789062499997 331.2371397083482 L 247.55859375 341.08133469826885 L 248.779296875 351.550847408191 L 250.24414062500003 364.7838493499503 L 251.95312499999997 380.9047809318979 L 254.638671875 407.0384162075396 L 257.8125 437.8631494205133 L 259.521484375 453.8870509266378 L 260.986328125 467.0731249519207 L 262.451171875 479.6165118498445 L 263.671875 489.4955597805077 L 264.892578125 498.79060281185184 L 266.11328125000006 507.45101539069475 L 267.333984375 515.4338417419011 L 268.5546875 522.7038967191677 L 269.775390625 529.2338003659205 L 270.99609375000006 535.0039480720038 L 272.21679687500006 540.0024186400963 L 273.4375 544.2248229707761 L 274.658203125 547.6740964352921 L 275.87890625000006 550.36023832917 L 277.09960937500006 552.3000020868403 L 278.3203125 553.5165401869117 L 279.541015625 554.0390078891926 L 280.76171875 553.9021301180768 L 281.982421875 553.1457359426474 L 283.203125 551.8142652023366 L 284.66796875 549.5259918056058 L 286.1328125 546.5702124211562 L 287.841796875 542.4072092841805 L 289.794921875 536.9049600416519 L 292.236328125 529.2756591664825 L 298.828125 508.1596909511368 L 300.78124999999994 502.72841326453505 L 302.490234375 498.5893768271437 L 304.19921875000006 495.1481173897386 L 305.6640625 492.8327801767138 L 307.12890625 491.16177838149093 L 308.59375 490.18076804065646 L 310.05859375 489.92533249102894 L 311.5234375 490.4207063586546 L 312.98828125 491.68161848103784 L 314.453125 493.71225235357565 L 315.91796875 496.5063215754564 L 317.38281249999994 500.0472567165489 L 318.84765625 504.30849904256934 L 320.3125 509.2538956274002 L 321.77734375 514.8381895544667 L 323.2421875 521.0075981679902 L 324.951171875 528.8621103298916 L 326.904296875 538.5690517580153 L 329.10156249999994 550.201156638256 L 332.275390625 567.7719275944282 L 336.42578125 590.7240620789664 L 338.623046875 602.2045545753833 L 340.33203125 610.5483787064979 L 342.041015625 618.2248373408027 L 343.505859375 624.1712659642149 L 344.97070312499994 629.4485380299881 L 346.435546875 633.9821925634249 L 347.65625000000006 637.1426875919399 L 348.876953125 639.7032146139614 L 350.09765625 641.6313070696251 L 351.318359375 642.89823498954 L 352.53906250000006 643.4792002230729 L 353.759765625 643.3535057714732 L 354.98046875 642.5046984886975 L 356.201171875 640.920684584048 L 357.421875 638.5938175317294 L 358.64257812500006 635.5209581621455 L 359.86328125 631.7035068773225 L 361.083984375 627.1474080973735 L 362.3046875 621.8631272054586 L 363.52539062500006 615.8656004145807 L 364.74609375 609.1741581299248 L 365.966796875 601.8124225245997 L 367.1875 593.8081801840142 L 368.408203125 585.1932308039588 L 369.62890625 576.0032130493823 L 371.09375 564.2716542252076 L 372.55859375 551.8430929715389 L 374.0234375 538.7983933337066 L 375.732421875 522.9168611816922 L 377.685546875 504.0728619522202 L 380.12695312500006 479.8179830174039 L 386.23046875 418.7918667523818 L 388.18359375 400.07698620351573 L 389.892578125 384.36654279184313 L 391.357421875 371.52301549356184 L 392.82226562499994 359.3575801086989 L 394.04296874999994 349.80543632934064 L 395.263671875 340.8410151450455 L 396.484375 332.51338900028213 L 397.705078125 324.86876906382633 L 398.92578124999994 317.95026561569546 L 400.146484375 311.7976651468216 L 401.123046875 307.4515234133946 L 402.099609375 303.63569546555107 L 403.076171875 300.3654632355498 L 404.052734375 297.65448075518907 L 405.029296875 295.51472938682105 L 406.005859375 293.9564785526543 L 406.982421875 292.98825205652565 L 408.0745643865639 292.6125824168861 L 408.935546875 292.8470768644447 L 409.91210937499994 293.68222425168847 L 410.888671875 295.1235608777887 L 411.865234375 297.1705772451461 L 412.841796875 299.82093652051174 L 413.818359375 303.0704810680875 L 414.79492187499994 306.9132446578434 L 415.77148437499994 311.34147027824145 L 416.74804687499994 316.3456334656046 L 417.72460937499994 321.91447104589747 L 418.70117187499994 328.03501516871813 L 419.677734375 334.69263249785377 L 420.8984375 343.74500000016405 L 422.119140625 353.5758440307071 L 423.33984375000006 364.1463053847764 L 424.560546875 375.4140353913658 L 425.78125000000006 387.3333942044969 L 427.00195312499994 399.85566391429415 L 428.46679687499994 415.6054339109546 L 429.93164062499994 432.05496931620064 L 431.64062499999994 451.9984515722997 L 433.349609375 472.5957920929352 L 435.54687500000006 499.7645330239132 L 443.359375 597.2003364453399 L 445.068359375 617.5535373079066 L 446.533203125 634.4276594803472 L 447.99804687499994 650.6642743387051 L 449.46289062499994 666.1631763739023 L 450.68359375000006 678.4461890085977 L 451.90429687499994 690.0976084290403 L 453.125 701.0673809883245 L 454.345703125 711.3083404448024 L 455.56640625 720.7764072750051 L 456.54296875 727.7668407748956 L 457.51953125 734.2171246198156 L 458.49609374999994 740.109404528411 L 459.47265624999994 745.427333822376 L 460.44921875000006 750.1561157470832 L 461.42578125000006 754.2825413198302 L 462.40234374999994 757.7950226237404 L 463.37890625 760.6836214787576 L 464.35546875 762.9400734346441 L 465.33203125 764.557807044425 L 466.30859375 765.5319583902169 L 467.2903375109381 765.859389971476 L 468.26171875 765.5386500819379 L 469.23828124999994 764.5700643048748 L 470.21484375000006 762.9556397892118 L 471.19140625000006 760.6991017072372 L 472.16796874999994 757.805870327149 L 473.14453124999994 754.2830426362286 L 474.12109375 750.1393694654726 L 475.09765625 745.3852282029881 L 476.07421875 740.0325911950049 L 477.05078125 734.0949899444913 L 478.02734375 727.5874752281375 L 479.00390625 720.5265732627719 L 479.98046874999994 712.9302380621926 L 481.20117187499994 702.711441557397 L 482.42187500000006 691.7269744791854 L 483.64257812499994 680.0205273834782 L 484.86328125 667.6386478199458 L 486.083984375 654.6305389027239 L 487.3046875 641.047847823507 L 488.76953125 624.0661630631397 L 490.23437499999994 606.4315946671011 L 491.94335937499994 585.1668494855389 L 493.89648437500006 560.1546563333638 L 496.337890625 528.194515270994 L 502.19726562499994 451.2046161164984 L 504.15039062499994 426.34570044828627 L 505.859375 405.25513849520723 L 507.32421875 387.7948866638616 L 508.7890625 371.0058429348135 L 510.009765625 357.5939913034697 L 511.23046875 344.76263511706145 L 512.451171875 332.55995902329926 L 513.671875 321.0315318430903 L 514.892578125 310.2201370558986 L 516.1132812499999 300.1656154745393 L 517.333984375 290.9047206622108 L 518.310546875 284.090062806119 L 519.287109375 277.82049003219856 L 520.263671875 272.1102385206136 L 521.240234375 266.972112478109 L 522.216796875 262.41745728017077 L 523.193359375 258.4561364734586 L 524.169921875 255.09651267600543 L 525.146484375 252.34543240225923 L 526.123046875 250.20821482982592 L 527.099609375 248.68864451436548 L 528.076171875 247.7889680489352 L 529.0037744189182 247.50911551537376 L 530.029296875 247.85060067335507 L 531.005859375 248.80873794462548 L 531.982421875 250.38044599659213 L 532.958984375 252.56036802435824 L 533.935546875 255.34167057736659 L 534.912109375 258.7160668894428 L 535.888671875 262.67384377024916 L 536.865234375 267.2038919690018 L 537.8417968749999 272.29373991302157 L 538.8183593749999 277.92959071564417 L 539.794921875 284.09636234034497 L 541.015625 292.52645115522023 L 542.236328125 301.72601292008744 L 543.4570312500001 311.65778188637955 L 544.677734375 322.2818836223088 L 545.8984375 333.5560042762214 L 547.119140625 345.43556830376815 L 548.5839843749999 360.4244097953167 L 550.0488281249999 376.1336539498909 L 551.513671875 392.4757324734594 L 553.22265625 412.2204912771999 L 555.17578125 435.50015710493153 L 557.6171875 465.3401864691266 L 564.94140625 555.5047729586386 L 566.89453125 578.6396016691075 L 568.603515625 598.2352111540335 L 570.068359375 614.4421240492393 L 571.533203125 630.0186939550745 L 572.998046875 644.8872813239609 L 574.21875 656.6839766090237 L 575.439453125 667.8982147016625 L 576.66015625 678.4925711486871 L 577.880859375 688.4321852091707 L 579.1015625 697.6848744169181 L 580.3222656249999 706.2212379345772 L 581.54296875 714.0147483824172 L 582.763671875 721.0418318724936 L 583.984375 727.2819360272971 L 585.205078125 732.7175858108735 L 586.181640625 736.4771467662625 L 587.158203125 739.7067118156126 L 588.134765625 742.4016809733382 L 589.111328125 744.5587554533361 L 590.087890625 746.1759377241038 L 591.064453125 747.2525283463824 L 592.041015625 747.7891196215094 L 593.0175781249999 747.7875860865029 L 593.9941406249999 747.2510718995611 L 594.970703125 746.183975167226 L 595.947265625 744.5919292717493 L 597.16796875 741.8742068037967 L 598.388671875 738.3630156170175 L 599.609375 734.077152938883 L 600.830078125 729.038140140457 L 602.0507812499999 723.2701186207161 L 603.271484375 716.7997364285307 L 604.4921874999999 709.656026138962 L 605.712890625 701.8702745306535 L 606.93359375 693.4758846389168 L 608.154296875 684.5082307843833 L 609.619140625 673.0428260790977 L 611.083984375 660.8729702758907 L 612.5488281249999 648.0691073309443 L 614.2578124999999 632.4275603982621 L 615.966796875 616.142352308025 L 617.919921875 596.9002607600255 L 620.361328125 572.1759555085658 L 629.150390625 482.45004850001146 L 631.1035156250001 463.4853092215743 L 632.8125 447.4800730617525 L 634.5214843749999 432.1337441549732 L 635.986328125 419.57843059812774 L 637.451171875 407.6365509516388 L 638.916015625 396.36148406558016 L 640.380859375 385.80229885027995 L 641.845703125 376.0035360423178 L 643.06640625 368.4476541355838 L 644.287109375 361.46804691477166 L 645.5078125 355.0827691202453 L 646.7285156249999 349.30742334724437 L 647.94921875 344.1551260609285 L 649.169921875 339.63648373706894 L 650.390625 335.75957913596153 L 651.611328125 332.52996767681134 L 652.83203125 329.9506838399242 L 654.052734375 328.0222574847271 L 655.2734375 326.7427399330053 L 656.4941406249999 326.1077396290017 L 657.71484375 326.1104671513011 L 658.9355468749999 326.7417893158098 L 660.15625 327.99029207485614 L 661.376953125 329.8423518845161 L 662.59765625 332.2822151809345 L 663.818359375 335.29208557664197 L 665.283203125 339.62840764902546 L 666.748046875 344.7194008064181 L 668.212890625 350.52389648416056 L 669.677734375 356.9974536123897 L 671.142578125 364.09266094727207 L 672.8515625 373.08917451764046 L 674.560546875 382.7801261880859 L 676.513671875 394.594045413102 L 678.4667968749999 407.06684641180505 L 680.908203125 423.37440304615257 L 684.08203125 445.3429910271494 L 691.162109375 494.63870415873146 L 693.603515625 510.8633172452225 L 695.80078125 524.8047381678392 L 697.75390625 536.5440850832877 L 699.4628906249999 546.2324843073324 L 701.1718749999999 555.3153322368271 L 702.880859375 563.7411173403401 L 704.58984375 571.4650630977628 L 706.298828125 578.4493781864087 L 707.763671875 583.8238424347552 L 709.228515625 588.6172749967952 L 710.6933593749999 592.81863202975 L 712.158203125 596.4208479713404 L 713.623046875 599.4208166548244 L 715.087890625 601.819347922695 L 716.552734375 603.6211002150992 L 718.017578125 604.8344897499308 L 719.482421875 605.4715770480102 L 721.19140625 605.5074229827881 L 722.9003906249999 604.8106541410112 L 724.6093749999999 603.4175647069095 L 726.318359375 601.3698471434661 L 728.02734375 598.7141217689573 L 729.98046875 595.000164271615 L 731.9335937499999 590.6411964382319 L 734.130859375 585.0759068645344 L 736.572265625 578.2254665946186 L 739.501953125 569.3342594781086 L 744.62890625 552.9609060918166 L 748.779296875 539.9519641085724 L 751.708984375 531.4071950207506 L 754.1503906249999 524.9121726348067 L 756.3476562499999 519.6725498852511 L 758.544921875 515.094480092075 L 760.498046875 511.6372321364059 L 762.451171875 508.7969977413112 L 764.4042968749999 506.60275354358777 L 766.357421875 505.07320008563096 L 768.3105468749999 504.21657336038606 L 770.263671875 504.03058322406946 L 772.216796875 504.50247914426967 L 774.169921875 505.6092423582929 L 776.123046875 507.3179021359757 L 778.3203124999999 509.90634580224463 L 780.5175781249999 513.1285511564254 L 782.958984375 517.3456910555071 L 785.888671875 523.1035256962721 L 789.794921875 531.5250260499872 L 796.3867187499999 545.848904584124 L 799.3164062499999 551.4953797324952 L 801.7578125 555.5448488030943 L 803.955078125 558.5314713752758 L 805.908203125 560.5670173871141 L 807.861328125 561.9427347213916 L 809.5703125 562.5525258086398 L 811.279296875 562.5660810026832 L 812.9882812499999 561.9487090301634 L 814.697265625 560.6712440766829 L 816.40625 558.7104186486906 L 818.1152343749999 556.0491885412196 L 819.8242187499999 552.677006816569 L 821.533203125 548.5900441001136 L 823.2421875 543.79135292314 L 824.951171875 538.2909742859515 L 826.66015625 532.1059850737875 L 828.369140625 525.2604854299984 L 830.0781250000001 517.7855256716082 L 831.7871093749999 509.7189728182825 L 833.7402343749999 499.8330220162258 L 835.6933593750001 489.3092672333828 L 837.890625 476.8161452498615 L 840.3320312499999 462.2855922752335 L 843.505859375 442.7102150388632 L 850.8300781249999 397.26313777217024 L 853.2714843749999 382.92226254158845 L 855.2246093750001 372.04076432634236 L 857.1777343749999 361.8289163414181 L 858.88671875 353.5454747870716 L 860.5957031249999 345.95954424705053 L 862.0605468749999 340.07462490459875 L 863.525390625 334.8117367000756 L 864.990234375 330.2179022403235 L 866.455078125 326.33748203821267 L 867.919921875 323.2118757304661 L 869.140625 321.2114272156923 L 870.361328125 319.78193724883374 L 871.58203125 318.9418311069595 L 872.8027343749999 318.70763765797085 L 874.0234375000001 319.09389888886494 L 875.2441406249999 320.1130862331478 L 876.4648437499999 321.77552407519227 L 877.6855468750001 324.08932078347596 L 878.9062500000001 327.06030759761484 L 880.1269531249999 330.691985665364 L 881.3476562499999 334.98548149605006 L 882.568359375 339.93951106589157 L 883.7890625 345.55035277864124 L 885.0097656249999 351.81182945210435 L 886.23046875 358.7152994673527 L 887.451171875 366.24965718307055 L 888.671875 374.40134268263535 L 889.892578125 383.15436088613467 L 891.11328125 392.4903100240399 L 892.333984375 402.3884194334662 L 893.7988281249999 414.9755278191474 L 895.2636718749999 428.29457588946275 L 896.7285156249999 442.29683304841114 L 898.1933593749999 456.9292268504993 L 899.9023437500001 474.7202486208454 L 901.6113281249999 493.1934678617022 L 903.564453125 515.0072454873239 L 905.76171875 540.2443781849901 L 908.69140625 574.6244731724391 L 914.306640625 640.7124299036983 L 916.5039062499999 665.8484580203219 L 918.4570312499999 687.5046627572538 L 920.1660156250001 705.7650812019958 L 921.6308593750001 720.8039633772181 L 923.0957031250001 735.1944021017791 L 924.560546875 748.8601835827487 L 925.78125 759.6414788524544 L 927.0019531249999 769.8270730157012 L 928.2226562499999 779.3773009608633 L 929.443359375 788.2541760305868 L 930.6640625 796.4215356746876 L 931.8847656249998 803.8451817157563 L 933.10546875 810.4930146912018 L 934.08203125 815.2325431711893 L 935.05859375 819.4421691302415 L 936.03515625 823.1086733425769 L 937.0117187499999 826.2198712375987 L 937.9882812499999 828.7646462056439 L 938.9648437500001 830.7329806908446 L 939.9414062499999 832.1159849905273 L 940.9179687499999 832.905923685593 L 941.8945312500001 833.0962396316208 L 942.8710937499999 832.6815754457903 L 943.8476562500001 831.6577924304038 L 944.8242187499999 830.0219868794168 L 945.8007812499999 827.7725037203818 L 946.77734375 824.9089474501328 L 947.7539062499999 821.4321903287209 L 948.73046875 817.3443778022763 L 949.70703125 812.6489311318417 L 950.6835937499998 807.3505472115206 L 951.66015625 801.4551955657791 L 952.63671875 794.9701125221795 L 953.61328125 787.9037925622615 L 954.58984375 780.2659768599061 L 955.56640625 772.0676390228876 L 956.54296875 763.3209680598526 L 957.51953125 754.0393486014062 L 958.7402343749999 741.7073404884325 L 959.9609374999999 728.5932539116191 L 961.1816406249999 714.7307531480292 L 962.4023437499999 700.1561233015408 L 963.6230468749999 684.9081653693879 L 964.8437500000001 669.0280821953735 L 966.0644531249999 652.559355673508 L 967.529296875 632.0842644262245 L 968.994140625 610.9099786978609 L 970.458984375 589.1229354520067 L 972.16796875 563.0502986587928 L 974.12109375 532.5714343024972 L 976.5624999999998 493.7853126535395 L 982.9101562500001 392.53634265960216 L 984.8632812499999 362.1994519090915 L 986.5722656250001 336.3040482852988 L 988.0371093750001 314.71458555003574 L 989.501953125 293.7863971687119 L 990.72265625 276.9188354024185 L 991.9433593749999 260.6278670124814 L 993.1640624999999 244.96435327966822 L 994.384765625 229.97737086435802 L 995.60546875 215.7140471019669 L 996.8261718749998 202.21940145510905 L 997.802734375 192.00594739549047 L 998.779296875 182.33265124966226 L 999.755859375 173.2192744246621 L 1000 171.0306318228378" stroke-linecap="round" stroke-linejoin="round" stroke-miterlimit="10" stroke-width="2.5" stroke-opacity="0.9" stroke-dasharray=""/></g></g></g><g id="labels-a3d19501"/></g></svg>